<svg xmlns="http://www.w3.org/2000/svg" version="1.0" width="51.000000pt" height="37.000000pt" viewBox="0 0 51.000000 37.000000" preserveAspectRatio="xMidYMid meet">

<g transform="translate(0.000000,37.000000) scale(0.100000,-0.100000)" fill="#2164a7" stroke="none">
<path d="M113 301 c-45 -28 -66 -65 -66 -116 0 -82 63 -139 146 -132 63 5 85 27 158 157 53 96 57 105 38 108 -36 6 -45 -4 -99 -102 -56 -101 -83 -123 -134 -110 -57 14 -76 92 -31 134 34 32 78 30 113 -3 l28 -27 14 25 c13 24 12 28 -12 52 -36 36 -110 42 -155 14z"/>
<path d="M464 185 c0 -77 2 -107 3 -67 2 40 2 103 0 140 -2 37 -3 4 -3 -73z"/>
<path d="M332 145 c-16 -35 -15 -49 6 -75 12 -15 26 -21 44 -18 l27 3 -33 58 c-33 57 -33 57 -44 32z"/>
</g>
</svg>