<svg xmlns="http://www.w3.org/2000/svg" xmlns:xlink="http://www.w3.org/1999/xlink" version="1.0" id="Layer_1" x="0" y="0" viewBox="0 150 200 240" style="enable-background:new 0 150 200 400;">
<style type="text/css">
	.st1{fill:white;}
</style>
<path class="st1" d="M145.5,223.9L45,379.8v-34.1c0-10.6-0.6-21.8,0.6-32.4c0.5-6.8,2.4-13.5,5.6-19.5c12.3-20.1,25.1-39.7,38-59.8  c1.9-3.2,4.6-5.9,7.8-7.7c3.2-1.9,6.9-2.9,10.6-2.9C119.8,223.9,132.1,223.9,145.5,223.9z"/>
<path class="st1" d="M181.8,167c-12.3,11.2-23.5,22.3-34.6,32.4c-10.3,9.4-23.5,15.1-37.4,16.2c-21.2,1.1-42.4,0-64.2,0V167H181.8z"/>
</svg>