<svg xmlns="http://www.w3.org/2000/svg" xmlns:xlink="http://www.w3.org/1999/xlink" version="1.0" id="Layer_1" x="0px" y="0px" viewBox="200 150 500 250" style="enable-background:new 170 150 500 250;" xml:space="preserve">
<style type="text/css">
	.st0{fill-rule:evenodd;clip-rule:evenodd;fill:white;}
</style>
<path class="st0" d="M262.5,242.7h31v-20.6h-83.2v20.6h31v82.6h21.3L262.5,242.7L262.5,242.7z M294.7,255v44.2  c0,3.5,0.5,7.1,1.6,10.4c1,3.2,2.6,6.2,4.7,8.8c2.2,2.7,5,4.8,8.1,6.2c3.6,1.6,7.5,2.3,11.4,2.3c8.4,0,15-3.4,19.6-10.2h0.2v8.7  h20.3V255h-20.5v39.2c0.1,3.5-1,7-3.2,9.7c-2.2,2.5-5.3,3.8-9.4,3.8s-7.2-1.2-9.2-3.7c-2-2.4-3-5.7-3-9.8V255H294.7z M417.6,254.2  c-3.7,0-7.4,0.9-10.7,2.7c-3.3,1.9-6,4.8-7.6,8.4h-0.2V255h-19.5v70.4h20.1v-30.9c0-6.4,1.5-11.3,4.6-14.8c3-3.5,7.1-5.2,12.2-5.2  c2.2,0,4.4,0.1,6.6,0.5v-20.2C421.4,254.4,419.5,254.2,417.6,254.2z M445.6,243.1c1.7,0,3.4-0.3,5-0.9c1.6-0.6,3-1.6,4.2-2.8  c1.2-1.2,2.1-2.6,2.8-4.1c0.6-1.6,1-3.2,1-4.9c0-1.7-0.3-3.3-1-4.9c-0.6-1.6-1.6-3-2.8-4.1c-1.2-1.2-2.6-2.2-4.2-2.8  c-1.6-0.6-3.3-1-5-0.9c-1.7,0-3.3,0.3-4.8,1c-1.5,0.6-2.9,1.6-4.1,2.8c-2.4,2.4-3.7,5.6-3.7,9c0,3.4,1.3,6.6,3.7,9  c1.1,1.2,2.5,2.1,4.1,2.8C442.3,242.8,444,243.1,445.6,243.1z M456.1,255v70.4h-20.6V255H456.1z M541.1,325.3v-43.8  c0-3.6-0.5-7.1-1.5-10.5c-1-3.2-2.5-6.2-4.5-8.9c-2.1-2.7-4.8-4.9-8-6.3c-3.6-1.6-7.5-2.4-11.5-2.3c-1.2,0-2.4,0.1-3.6,0.4  c-1.8,0.3-3.5,0.8-5.2,1.3c-2.2,0.7-4.3,1.8-6.2,3.3c-2,1.5-3.7,3.4-4.9,5.6h-0.2V255h-20.4v70.4h20.5v-39.1c-0.1-3.5,1-7,3.2-9.7  c2.2-2.6,5.3-3.9,9.4-3.9c4.1,0,7.2,1.2,9.2,3.7c2,2.5,3.1,5.8,3.1,9.9v39.1L541.1,325.3z M609.9,255v8.5h-0.3  c-1.6-2-3.5-3.7-5.6-5.1c-1.9-1.3-4-2.3-6.1-3c-1.7-0.5-3.4-0.9-5.2-1.2c-1.4-0.2-2.8-0.3-4.3-0.3c-4.8,0-9.5,1-13.7,3.1  c-4.1,1.9-7.7,4.7-10.6,8.2c-2.8,3.4-5.1,7.3-6.6,11.5c-1.6,4.2-2.4,8.7-2.4,13.2c-0.1,6.2,1.4,12.4,4.2,18c2.7,5.3,6.9,9.8,12,12.9  c5.3,3.2,11.5,4.9,17.7,4.8c8.7,0,15.5-3.1,20.3-9.4h0.3v8c0.1,2.9-0.5,5.7-1.5,8.4c-0.9,2.3-2.4,4.3-4.2,5.8  c-1.8,1.5-3.8,2.6-6,3.3c-2.3,0.7-4.7,1.1-7.1,1.1c-4.5,0-8.2-1.3-11-3.8c-2.7-2.4-4.6-5.7-5.2-9.2l-19,5.5c0.6,3.4,1.9,6.6,3.8,9.4  c4.3,6.6,10.8,11.5,18.3,13.8c4.5,1.4,9.3,2.2,14,2.1c5.2,0.1,10.5-0.8,15.4-2.5c4.5-1.6,8.7-4,12.2-7.2c3.6-3.4,6.4-7.6,8.1-12.2  c2-5.4,3-11.2,2.9-16.9V255H609.9z M605.2,302.5c-3.3,3.2-7.6,4.9-12.2,4.9c-4.6,0-8.9-1.8-12.2-4.9c-3.3-3.3-4.9-7.5-4.9-12.7  c-0.1-2.3,0.3-4.7,1.2-6.8s2.1-4.2,3.8-5.8c3.3-3.2,7.6-5,12.2-5c4.6,0,8.9,1.8,12.2,5c1.6,1.7,2.9,3.6,3.8,5.8s1.2,4.5,1.2,6.8  C610.2,294.9,608.6,299.2,605.2,302.5L605.2,302.5z"/>
</svg>